<svg viewBox="0 0 846.2 659" version="1.1" xmlns="http://www.w3.org/2000/svg">
  <defs>
    <style>
      .cls-1 {
        fill: #151D25;
      }
    </style>
  </defs>
  <g>
    <g id="Layer_1">
      <g id="BRAND">
        <path d="M729.7,69h-33.1c-7.9,0-16-2.3-23.7-4h-27.4l-22.1,41.7s14.4,2.3,24.9-4c-21.4,78.7-113.5,137.2-206.7,89.6-77.2-39.4-217.7-30.9-280.5,108.6-1.4,3.1-2.9,6.1-4.5,9.1-26.1,48.5-63.6,112.9-127,123.3,23.1,5.9,55.3-5.1,66.9-13.1l-53.6,48.4-38.1,71,13,54.3h42.1l7.7-14.2-11.1-7.9h-4.2c-9.7,0-16.8-21-15.5-29.8,5.9-40.4,69.2-81.1,118.8-107.1,49.6-26,106.2-63.1,127.3-119.9-1.9,28.9-9.5,59-51.6,96l-33.7,62.7,34.8,103.4h46.7l7.6-14.2-12-7.9s-14.3,0-20.3-9.9c-30.1-50-16.6-86.5,6.1-111.8,56.8-63.6,54.7-70.5,64.2-110.8,6.7-28.4,21.5-47.7,21.5-47.7-19.1-27.8-53.1-33.8-53.1-33.8,55.4,5.2,96.5,36,120.8,65.9,10.1,12.4,21,25.6,40.3,38.3,13.4,8.9,36.3,21.7,67.4,26-3.6,19.4-19.6,46.9-34.9,62.6l-45.1,85.1,17.5,58.3h34.7l7-13.1-12.9-7.3c-19.2,0-29.3-59.4,21.4-101.3,20.9-17.3,34.9-32.4,43.9-43.9.9-1.2-.2-15.6-10.9-32.3-15.7-24.6-7.7-49.7-7.7-49.7,0,0-.4,26.9,19.3,44.7,52.5,47.6,70.7,106,66.2,143.7,26.5,17.9,33.4,76.1,33.4,76.1h48.2l7.5-14.2-13.8-7.9c-18.8,0-27.5-22.4-29.7-27.7-6.9-16.6-15.6-41-24.1-74.6-18.3-72.2-4.1-125.1-4.1-125.1,52.3-37.6,42.1-94,41.8-121-.7-71.3,37.5-90.9,67-90.9h48.5s33-9.1,33-9.1l11.6-21.8c-29.2-11.4-59.3-13.6-73.4-21.7-10.7-6.1-19.6-11-36.3-11h0Z" class="cls-1"></path>
      </g>
    </g>
  </g>
</svg>
